inDegrees=no
num_controls=7
num_derivatives=13
num_iterations=98
num_multipliers=7
num_parameters=0
num_slacks=7
num_states=26
objective=0.331679
objective_accelerations=0.035598
objective_balance=0.001278
objective_effort=0.026470
objective_height=0.266871
objective_ligament=0.001462
solver_duration=1035.057777
status=Solve_Succeeded
success=true
DataType=double
version=3
OpenSimVersion=4.5
endheader
time	/jointset/ground_pelvis/pelvis_tilt/value	/jointset/ground_pelvis/pelvis_tx/value	/jointset/ground_pelvis/pelvis_ty/value	/jointset/hip_r/hip_flexion_r/value	/jointset/hip_r/hip_adduction_r/value	/jointset/hip_r/hip_rotation_r/value	/jointset/back/lumbar_extension/value	/jointset/patellofemoral_r/patellar_flexion_r/value	/jointset/knee_r/knee_flexion_r/value	/jointset/knee_r/knee_adduction_r/value	/jointset/knee_r/knee_rotation_r/value	/jointset/ankle_r/ankle_angle_r/value	/jointset/subtalar_r/subtalar_angle_r/value	/jointset/ground_pelvis/pelvis_tilt/speed	/jointset/ground_pelvis/pelvis_tx/speed	/jointset/ground_pelvis/pelvis_ty/speed	/jointset/hip_r/hip_flexion_r/speed	/jointset/hip_r/hip_adduction_r/speed	/jointset/hip_r/hip_rotation_r/speed	/jointset/back/lumbar_extension/speed	/jointset/patellofemoral_r/patellar_flexion_r/speed	/jointset/knee_r/knee_flexion_r/speed	/jointset/knee_r/knee_adduction_r/speed	/jointset/knee_r/knee_rotation_r/speed	/jointset/ankle_r/ankle_angle_r/speed	/jointset/subtalar_r/subtalar_angle_r/speed	/forceset/tau_hip_flexion_r	/forceset/tau_hip_adduction_r	/forceset/tau_hip_rotation_r	/forceset/tau_knee_flexion_r	/forceset/tau_ankle_angle_r	/forceset/tau_subtalar_angle_r	/forceset/tau_lumbar_extension	lambda_cid13_p0	lambda_cid14_p0	lambda_cid14_p1	lambda_cid14_p2	lambda_cid14_p3	lambda_cid14_p4	lambda_cid14_p5	/jointset/ground_pelvis/pelvis_tilt/accel	/jointset/ground_pelvis/pelvis_tx/accel	/jointset/ground_pelvis/pelvis_ty/accel	/jointset/hip_r/hip_flexion_r/accel	/jointset/hip_r/hip_adduction_r/accel	/jointset/hip_r/hip_rotation_r/accel	/jointset/back/lumbar_extension/accel	/jointset/patellofemoral_r/patellar_flexion_r/accel	/jointset/knee_r/knee_flexion_r/accel	/jointset/knee_r/knee_adduction_r/accel	/jointset/knee_r/knee_rotation_r/accel	/jointset/ankle_r/ankle_angle_r/accel	/jointset/subtalar_r/subtalar_angle_r/accel	gamma_cid13_p0	gamma_cid14_p0	gamma_cid14_p1	gamma_cid14_p2	gamma_cid14_p3	gamma_cid14_p4	gamma_cid14_p5
1.5	-0.1004661891184078	0.04128618353772413	0.8204695284707332	0.807347059246429	-0.225840373450199	-0.125753197422532	-0.6224348387893308	0.9230027501388153	0.9230027501387487	-0.03582838950147429	0.1744948970438343	0.3060285356969238	0.1387158314458036	0.4960052393147905	0.2228747341730792	0.4937600402397178	-2.015784150776112	-0.001210285909772622	-0.1667709721437367	0.807162017865257	-1.922677441213206	-1.922677441213187	0.4939092472652975	-7.929503419797004e-06	-0.5211342004286414	-0.2100652980562769	-0.1665743857617427	0.01361182046951847	0.01760403377710179	-0.2839308041910704	-0.009569217295124086	-0.003874923619915452	0.2155100359952573	-10.06144645898112	-45.12264202548172	-8.444938754734336	0.4677460500459842	-1.109364486595491	-628.9570307720701	56.92521685719772	0.1254633697304104	0.5318325296446994	-0.5176960646443793	-0.9665492209618317	-0.2646927940307411	-0.6830464839863203	1.744751897724496	-1.321209020475436	-1.321209020475416	0.4431507219060629	-0.01988388702518697	-0.6524313730415207	-0.4437612554694592	1.531499634766703e-07	1.357748463779218e-07	-8.437967198577535e-07	1.497891579387006e-06	2.543549358445326e-10	3.159938567223182e-07	-7.135913860135292e-07
1.51	-0.09550020531120849	0.0435412575778284	0.8253802387670335	0.7871429320387081	-0.2258666197963459	-0.1274545332144759	-0.6142775617099288	0.9037124600829137	0.903712460082898	-0.03086537110328205	0.1744947925634926	0.3007850891514999	0.1365919643887744	0.4971188420606186	0.2281093348748963	0.4882757877654081	-2.02476916273044	-0.004046424165021104	-0.1735045747089351	0.8241750004596566	-1.935108026913641	-1.935108026913618	0.4986572386706354	-1.607828604746506e-05	-0.5274721891414393	-0.2146670938009624	-0.1591715418455753	0.01194842196923628	0.01771966693334535	-0.2803372797573809	-0.007647305321344396	-0.004696651721404444	0.2087515081327092	-11.06926988040539	-44.23970463185258	-8.505829984244494	0.3159533234435974	-1.160921695189469	-624.1188283484752	56.72664572579102	0.09341665520168729	0.5146649586713372	-0.5796615246876294	-0.8236427979296019	-0.2940449426316982	-0.6695246432745433	1.661811806957402	-1.163131425112076	-1.163131425111503	0.4849385141836683	0.008495621016813349	-0.6120121865865972	-0.4622090743490533	1.495473737212425e-07	1.293194932045978e-07	-8.674519596780139e-07	1.42745827603331e-06	6.568035166792162e-09	3.153457495828669e-07	-7.47313016274542e-07
1.52	-0.09052526389091416	0.04584775584859499	0.830232932201418	0.7668571215883898	-0.225921421645318	-0.1292234065321684	-0.6059537067312512	0.8843060345539507	0.8843060345539867	-0.02585600975817013	0.1744945617943055	0.2954807568057105	0.134423315306222	0.497796761934158	0.2331595803055444	0.4821566678565621	-2.03212079929522	-0.006921386474661881	-0.1802784772936515	0.8404775977204477	-1.945904535825459	-1.945904535825431	0.5031778366494143	-3.318727273962191e-05	-0.5333113605017442	-0.2190217031608865	-0.151768697929411	0.01028502346895526	0.01783530008959112	-0.2767437553236918	-0.005725393347564175	-0.005518379822891435	0.201992980270158	-12.07832145467852	-43.35718032293043	-8.564843424188549	0.1616333546181388	-1.22427139204464	-619.2868944219117	56.58947636700123	0.03832679527265895	0.494961475410902	-0.6446695515516762	-0.6398741430522604	-0.2724576049092071	-0.6911064878899137	1.602674831002778	-0.9943936627518568	-0.9943936627518586	0.3976720365942562	-0.02167592783806976	-0.5526679025428863	-0.3943239785171738	1.500371326705805e-07	1.206033254491232e-07	-9.771408194023515e-07	1.307669819094519e-06	2.411020538701226e-08	3.109198124821103e-07	-8.209201520248843e-07
1.53	-0.08554577498351572	0.04820374756672268	0.8350213197074451	0.7465060874712747	-0.2260050586132692	-0.1310608734987157	-0.5974705540373522	0.8647998210827135	0.8647998210826641	-0.02080320675544675	0.1744944323243952	0.2901205459483088	0.1322125333698893	0.498024218444846	0.2379987374898133	0.4754207456456982	-2.037799394127497	-0.00980860931005373	-0.187213618915698	0.8560138873030603	-1.955054328482337	-1.955054328482293	0.5073463486798485	7.988644966884701e-07	-0.5386466910644578	-0.2230893114906445	-0.1443064916050814	0.00843142671558739	0.01797581882810475	-0.273332480602603	-0.003805597308833347	-0.006393266764800133	0.1951632426416771	-13.08551587579781	-42.49704387350024	-8.654597726965287	0.01647980300914869	-1.211206360835001	-614.67318730972	56.46419747847407	0.003442820300509169	0.4724028376257453	-0.7030071190014183	-0.4888457306844925	-0.2971831385192262	-0.6942883178552426	1.508247958426426	-0.8327290692132626	-0.8327290692107241	0.4208168196087024	0.01512798401558036	-0.5113005992240395	-0.4062521401832492	1.548750121187321e-07	1.094850422001137e-07	-1.17824040027477e-06	1.135441511471566e-06	5.358264622083423e-08	3.024799310474668e-07	-9.369056373576387e-07
1.54	-0.08056631396274534	0.05060693285623116	0.8397393572787339	0.7261068686903611	-0.2261176335127081	-0.1329676059451814	-0.5888362100603202	0.845210618284496	0.8452106182843619	-0.01570984342575204	0.1744944811357598	0.2847095147920622	0.1299624207742631	0.4977911846088836	0.242598294581702	0.4680866809089269	-2.04175773205454	-0.01270897277204767	-0.1941315732774739	0.8707158543471132	-1.962502401221511	-1.96250240122145	0.5112899020439117	2.468982177570005e-06	-0.5434754202707086	-0.2268878350195286	-0.1368442852807556	0.006577829962219484	0.01811633756662002	-0.2699212058815147	-0.001885801270102237	-0.007268153706708779	0.1883335050131925	-14.08666953814098	-41.63806458054803	-8.743471508359626	-0.1300516092875514	-1.204954943043665	-610.075168865415	56.39348541167617	-0.05377127405744853	0.4470414569348776	-0.764298056733177	-0.2958227620055335	-0.2750857302296338	-0.6876690358357822	1.435810323290815	-0.6540496792108078	-0.654049679210845	0.3526803033200846	-0.02813913174914041	-0.4513476312502996	-0.3405070183424052	1.600857824200234e-07	9.991935785368926e-08	-1.374482126759649e-06	9.61370920890667e-07	8.156808396117849e-08	2.940428219385185e-07	-1.037926255123535e-06
1.55	-0.07559147178415526	0.05305483710139974	0.8443811319395487	0.705676750973075	-0.226259113836217	-0.1349441239384612	-0.5800591757694992	0.8255555076756191	0.8255555076755384	-0.01057893174128822	0.1744946898239651	0.2792528095564747	0.1276759455895909	0.4971004586008198	0.2469341829253419	0.4601745565369588	-2.043964927690636	-0.01558195238735554	-0.2011649462520986	0.8845365326470194	-1.968216866943872	-1.968216866943813	0.5148438970302519	2.893679113009302e-05	-0.5477737703128494	-0.2303511963485214	-0.1294412808743238	0.004759142884603259	0.01824389697214012	-0.2665779850748717	-5.382891834122134e-05	-0.008286644096013806	0.1815417312614209	-15.07861333553538	-40.83811396419657	-8.917165213837507	-0.2492191063943296	-1.117366740984714	-605.7423094324315	56.20055915248979	-0.08823540849797763	0.4196312813125396	-0.8186676503018712	-0.1380258023255058	-0.2926598050130683	-0.7098943401983093	1.332025907806972	-0.4847507492520852	-0.4847507492523099	0.349258023537647	0.01658169126702121	-0.4052378710476028	-0.3410319338745044	1.657261878347147e-07	9.214253746024325e-08	-1.56512676014584e-06	7.851776999451793e-07	1.078402355286029e-07	2.856089070309144e-07	-1.121704742866747e-06
1.56	-0.07062583929451105	0.05554465398165143	0.8489409857520689	0.6852335897318431	-0.2264291751014464	-0.1369907202438707	-0.571148568830786	0.8058523312634207	0.805852331263389	-0.005413980321506847	0.1744948715810662	0.2737558889843954	0.1253564805428892	0.4959492468200747	0.2509808215983257	0.4517025112500597	-2.044366436843285	-0.01842516111593201	-0.208147235703623	0.8974303839255866	-1.972115561886364	-1.972115561886306	0.5180978491064583	-2.917237933603551e-06	-0.5515184875690556	-0.233485807425386	-0.1220382764678954	0.002940455806988414	0.01837145637762338	-0.2632347642682322	0.001778143433420525	-0.009305134485315713	0.1747499575096462	-16.05889184594698	-40.03898658503783	-9.090425068982764	-0.3691161994608012	-1.034968886311585	-601.4236893444992	56.05330114248632	-0.1458684285937236	0.3891915228036459	-0.8762822397194034	0.06531453468382759	-0.2691315528833588	-0.6774523312157326	1.250444919022995	-0.290895523236907	-0.290895523236915	0.292671721293331	-0.03980349935237018	-0.3406210740633694	-0.2747569679167667	1.79157509198778e-07	8.164624873158418e-08	-1.889228070807223e-06	5.105893574962682e-07	1.521497659999743e-07	2.583083392258443e-07	-1.239890691552169e-06
1.57	-0.06567405156197322	0.05807353678989637	0.8534134488027151	0.6647952859339277	-0.2266274714602711	-0.1391080997008219	-0.5621138526837693	0.7861191112164577	0.7861191112165129	-0.0002187609752363817	0.1744953756433133	0.2682244187953879	0.123007430434633	0.4943236749938291	0.2547514583619022	0.4427080622800214	-2.043000246477989	-0.02124084425820449	-0.2152648754868875	0.9093445005081209	-1.974221260334294	-1.974221260334275	0.5209624881661691	7.789039081845014e-05	-0.5546750245951153	-0.2362879401265517	-0.1142177335031435	0.000364209588591685	0.0185428082588551	-0.2611530624980726	0.005082198363709296	-0.01032180771343157	0.1677536172403524	-17.02563116303391	-38.79314812703738	-9.199842577161913	-0.4818718464944863	-1.355080054969247	-597.585947007043	56.23294303929455	-0.1835879353496396	0.3644089996894988	-0.9232960899819781	0.2163890949859923	-0.2890374973349732	-0.7191732847803883	1.136643282398071	-0.1243720633521883	-0.124372063358158	0.2854452536529309	0.02807073460364166	-0.2879857947464503	-0.2779349911116609	2.023274754995559e-07	6.775062458390883e-08	-2.380150228062592e-06	1.130071131680792e-07	2.190060201012794e-07	2.074244552989419e-07	-1.401085966415355e-06
1.58	-0.06074105682284175	0.06063880781508797	0.8577935133907937	0.6443794676011699	-0.2268541748110064	-0.1412947062521851	-0.5529650457200218	0.7663740411734599	0.7663740411736011	0.005005521812699822	0.1744958973499688	0.2626644200805458	0.1206313602853859	0.4921906481392019	0.2582584649876576	0.4332228187365429	-2.039869343811356	-0.02410655949790761	-0.2219926545860953	0.920248547271836	-1.974485561093473	-1.974485561093494	0.5239105374395997	6.116441568967935e-07	-0.5572241927359425	-0.2388898156235257	-0.1063971905383952	-0.002212036629806324	0.01871416014007727	-0.2590713607279146	0.008386253293997756	-0.01133848094154949	0.1607572769710555	-17.97749131587817	-37.54795260634747	-9.310302102691786	-0.5933998781030104	-1.67199928865264	-593.7525822817194	56.43621834592704	-0.2473594342700865	0.3364654952394666	-0.9744411544074558	0.4182569949510224	-0.2791379723694943	-0.599480194404394	1.048430955259169	0.07738401451314013	0.07738401451313992	0.3093537640373104	-0.07142077443508053	-0.2191472970168727	-0.2347055270784363	2.066352512963173e-07	2.274192019931998e-08	-2.935569778350015e-06	-7.730847813923839e-07	3.182227578685093e-07	6.757872765056624e-08	-1.413679777014557e-06
1.59	-0.05583201927449044	0.06323754545411957	0.8620763209467892	0.6240044748114787	-0.2271084350408222	-0.1435511514283676	-0.5437122539712966	0.7466354214409356	0.7466354214409818	0.01025424792572655	0.1744965933998242	0.2570821227724301	0.1182323779810884	0.489542607239378	0.2614173731135619	0.4232645213130193	-2.034804508321566	-0.02673721612245029	-0.2292295802570792	0.9301206350315859	-1.972912735592223	-1.972912735592201	0.5258257877449789	0.0001147959367860138	-0.5591525677171906	-0.2408610428545754	-0.09937031695798584	-0.00356544499300142	0.01859144929675403	-0.25551248842493	0.009308405882503512	-0.01250893899440506	0.1542550176715067	-18.91377522557842	-37.11294179286246	-9.619432893877464	-0.6846487934062769	-1.209924577225389	-590.257876753141	56.06295501403936	-0.2846610342597294	0.2949593475149073	-1.017719367927552	0.5992920535009045	-0.25464505230265	-0.7759271340072675	0.9282225700646624	0.2460447596137386	0.2460447596203401	0.1305896647440037	0.04859012689440521	-0.1671007875441739	-0.1725043813348495	1.853443399804861e-07	-6.449167879250632e-08	-3.578521504895219e-06	-2.322154058410897e-06	4.613572948966347e-07	-1.930009307626592e-07	-1.224600171826934e-06
